<svg xmlns="http://www.w3.org/2000/svg" viewBox="0 0 48 48" width="48" height="48">
  <defs>
    <linearGradient id="brand" x1="0%" y1="0%" x2="100%" y2="100%">
      <stop offset="0%" stop-color="#0097b2"/>
      <stop offset="100%" stop-color="#7ed952"/>
    </linearGradient>
  </defs>
  <path d="M24 4C12.95 4 4 11.16 4 20c0 4.84 2.76 9.18 7.1 12.14L8 40l8.56-4.28C18.8 36.56 21.34 37 24 37c11.05 0 20-7.16 20-16S35.05 4 24 4z" fill="url(#brand)"/>
  <circle cx="19" cy="20" r="2.5" fill="white" opacity="0.95"/>
  <circle cx="29" cy="20" r="2.5" fill="white" opacity="0.95"/>
  <path d="M17 25c0 0 3 4 7 4s7-4 7-4" stroke="white" stroke-width="2.2" stroke-linecap="round" fill="none" opacity="0.9"/>
  <path d="M15 13h7" stroke="white" stroke-width="1.8" stroke-linecap="round" opacity="0.4"/>
  <path d="M15 16h12" stroke="white" stroke-width="1.8" stroke-linecap="round" opacity="0.3"/>
</svg>
